HIERARCHY
ROOT Hips
{
	OFFSET 55.310501 45.591206 43.872097
	CHANNELS 6 Xposition Yposition Zposition Zrotation Xrotation Yrotation
	JOINT Chest
	{
		OFFSET -0.153500 1.163101 7.852402
		CHANNELS 6 Xposition Yposition Zposition Zrotation Xrotation Yrotation
		JOINT Chest2
		{
			OFFSET 0.000000 0.000000 3.343300
			CHANNELS 6 Xposition Yposition Zposition Zrotation Xrotation Yrotation
			JOINT Neck
			{
				OFFSET 0.000000 0.000000 7.785500
				CHANNELS 6 Xposition Yposition Zposition Zrotation Xrotation Yrotation
				JOINT Head
				{
					OFFSET 0.000000 0.000000 2.173901
					CHANNELS 6 Xposition Yposition Zposition Zrotation Xrotation Yrotation
					End Site
					{
						OFFSET 0.000000 0.000000 10.528198
					}
				}
			}
			JOINT LeftCollar
			{
				OFFSET 2.676300 -1.652401 4.938301
				CHANNELS 6 Xposition Yposition Zposition Zrotation Xrotation Yrotation
				JOINT LeftShoulder
				{
					OFFSET 4.299000 0.000000 0.000000
					CHANNELS 6 Xposition Yposition Zposition Zrotation Xrotation Yrotation
					JOINT LeftElbow
					{
						OFFSET 0.000000 0.000000 -10.245102
						CHANNELS 6 Xposition Yposition Zposition Zrotation Xrotation Yrotation
						JOINT LeftWrist
						{
							OFFSET 0.000000 0.000000 -12.703300
							CHANNELS 6 Xposition Yposition Zposition Zrotation Xrotation Yrotation
							End Site
							{
								OFFSET 0.000000 0.000000 -2.173901
							}
						}
					}
				}
			}
			JOINT RightCollar
			{
				OFFSET -2.534599 -1.686401 5.195000
				CHANNELS 6 Xposition Yposition Zposition Zrotation Xrotation Yrotation
				JOINT RightShoulder
				{
					OFFSET -4.144100 0.000000 0.000000
					CHANNELS 6 Xposition Yposition Zposition Zrotation Xrotation Yrotation
					JOINT RightElbow
					{
						OFFSET 0.000000 0.000000 -10.116501
						CHANNELS 6 Xposition Yposition Zposition Zrotation Xrotation Yrotation
						JOINT RightWrist
						{
							OFFSET 0.000000 0.000000 -12.937801
							CHANNELS 6 Xposition Yposition Zposition Zrotation Xrotation Yrotation
							End Site
							{
								OFFSET 0.000000 0.000000 -2.173901
							}
						}
					}
				}
			}
		}
	}
	JOINT LeftHip
	{
		OFFSET 2.175598 0.064499 -2.662899
		CHANNELS 6 Xposition Yposition Zposition Zrotation Xrotation Yrotation
		JOINT LeftKnee
		{
			OFFSET 0.000000 -0.000004 -18.585800
			CHANNELS 6 Xposition Yposition Zposition Zrotation Xrotation Yrotation
			JOINT LeftAnkle
			{
				OFFSET 0.000000 0.000000 -18.979500
				CHANNELS 6 Xposition Yposition Zposition Zrotation Xrotation Yrotation
				End Site
				{
					OFFSET 0.000000 -9.264000 0.000000
				}
			}
		}
	}
	JOINT RightHip
	{
		OFFSET -2.092400 -0.058102 -2.581200
		CHANNELS 6 Xposition Yposition Zposition Zrotation Xrotation Yrotation
		JOINT RightKnee
		{
			OFFSET 0.000000 -0.000004 -18.665001
			CHANNELS 6 Xposition Yposition Zposition Zrotation Xrotation Yrotation
			JOINT RightAnkle
			{
				OFFSET 0.000000 0.000000 -18.566601
				CHANNELS 6 Xposition Yposition Zposition Zrotation Xrotation Yrotation
				End Site
				{
					OFFSET 0.000000 -8.497601 0.000000
				}
			}
		}
	}
}
MOTION
Frames: 5
Frame Time: 0.041667
68.243698 -33.398197 33.305592 3090.788023 8.575698 -0.616285 -0.153499 1.163107 7.852407 2.760778 23.438776 -5.350839 -0.000006 0.000014 3.343307 0.510632 -9.899394 0.067888 -0.000004 0.000007 7.785500 -16.289472 45.240035 0.951898 0.000003 0.000004 2.173913 -4.647498 6.194195 -7.316562 2.676295 -1.652388 4.938292 7.399312 7.480257 -13.296518 4.298994 -0.000011 -0.000002 -433.258406 -46.153484 233.523676 -0.000001 0.000000 -10.245113 -80.014334 694.705589 265.508550 -0.000001 0.000009 -12.703310 1168.953764 -175.868984 556.541955 -2.534593 -1.686400 5.194998 -5.063783 6.925086 11.392214 -4.144104 -0.000012 0.000006 329.347542 153.214407 -217.255190 0.000001 0.000001 -10.116493 -457.980604 -190.513319 -320.359914 0.000002 0.000000 -12.937813 -1041.249225 -49.239725 -19.767162 2.175590 0.064501 -2.662886 -980.795712 -29.253588 73.947829 -0.000008 -0.000006 -18.585798 368.704266 -190.481354 -101.753283 -0.000005 0.000002 -18.979500 754.471985 -2.803444 -701.703856 -2.092404 -0.058100 -2.581190 1311.404298 -31.361821 -49.213398 0.000001 -0.000004 -18.665010 -1106.758061 70.695402 -982.397255 -0.000002 0.000001 -18.566603 724.716020 -6.072875 -15.035905
68.266602 -33.314091 33.538094 3090.664971 8.280185 -0.550071 -0.153502 1.163097 7.852411 2.165411 23.364638 -5.061740 0.000005 0.000006 3.343303 0.751127 -9.585138 0.067291 0.000001 -0.000004 7.785504 -15.535972 44.914614 0.469043 -0.000007 0.000003 2.173913 -4.777987 6.129629 -7.268584 2.676296 -1.652402 4.938296 6.892580 4.180137 -14.736867 4.299004 -0.000005 -0.000002 -429.616467 -46.280020 238.597742 0.000000 -0.000003 -10.245105 -78.287806 690.373282 265.941393 -0.000001 0.000011 -12.703304 1166.899461 -176.034302 556.591788 -2.534592 -1.686404 5.194992 -5.348438 6.281866 13.747239 -4.144102 0.000004 0.000011 329.559687 154.791689 -216.167906 -0.000003 -0.000006 -10.116498 -458.225097 -191.468658 -320.672081 0.000008 0.000015 -12.937806 -1038.541957 -49.719560 -18.686991 2.175603 0.064489 -2.662889 -981.043238 -29.352892 72.907188 0.000002 -0.000009 -18.585796 368.994686 -190.864213 -102.398462 -0.000004 -0.000002 -18.979500 754.183150 -2.513995 -701.923077 -2.092402 -0.058107 -2.581192 1312.833939 -32.105277 -47.849874 0.000004 -0.000009 -18.665012 -1105.874508 70.711808 -984.541935 0.000009 0.000003 -18.566601 724.757110 -5.743592 -14.936160
68.286003 -33.231083 33.772892 3090.622350 8.020785 -0.494165 -0.153499 1.163109 7.852403 1.732939 23.209007 -4.835640 0.000008 -0.000002 3.343310 0.868882 -9.410251 0.067781 0.000012 -0.000010 7.785505 -15.100107 44.751775 0.252225 0.000000 -0.000004 2.173903 -4.842691 6.025826 -7.004657 2.676304 -1.652399 4.938295 7.419094 3.355128 -15.491554 4.299007 0.000002 0.000000 -429.290503 -46.347840 239.635493 0.000008 -0.000001 -10.245101 -76.632626 685.968630 266.479585 -0.000005 0.000010 -12.703299 1164.918051 -176.172804 556.649817 -2.534598 -1.686402 5.194999 -5.037735 6.261640 13.682923 -4.144102 -0.000007 0.000002 329.961139 154.847068 -217.135265 0.000001 0.000001 -10.116506 -458.647640 -192.322841 -320.856114 0.000000 -0.000002 -12.937802 -1036.068226 -50.016338 -16.954160 2.175598 0.064503 -2.662897 -981.347373 -29.395659 71.911722 -0.000002 -0.000006 -18.585804 369.144513 -191.010120 -103.042659 -0.000004 -0.000003 -18.979498 754.197138 -2.409474 -701.943459 -2.092390 -0.058107 -2.581196 1314.338766 -32.913319 -46.377367 -0.000001 0.000008 -18.665010 -1105.025488 70.731834 -986.837315 0.000013 0.000011 -18.566603 724.801643 -5.417289 -14.819216
68.299294 -33.149693 33.999298 3090.001841 7.698046 -0.228447 -0.153499 1.163100 7.852406 2.153133 23.124519 -4.865572 0.000009 0.000012 3.343300 0.843438 -9.313022 0.067120 0.000005 0.000002 7.785497 -14.990821 44.601316 0.235170 0.000007 0.000003 2.173901 -4.868433 6.023601 -6.894033 2.676311 -1.652392 4.938304 7.889543 2.734195 -16.029136 4.299004 0.000001 0.000002 -429.182586 -46.237048 240.262559 0.000009 -0.000006 -10.245110 -75.022340 681.688068 267.030972 0.000002 0.000006 -12.703300 1163.066031 -176.287661 556.718774 -2.534590 -1.686391 5.195004 -5.135021 6.028814 14.831553 -4.144104 -0.000002 0.000004 318.145430 148.724596 -210.946363 0.000004 -0.000002 -10.116509 -446.397914 -192.599532 -321.389251 0.000004 0.000001 -12.937803 -1033.604222 -50.279007 -15.074099 2.175599 0.064497 -2.662901 -981.169679 -29.657364 70.868902 -0.000002 -0.000008 -18.585800 369.350730 -191.138664 -103.647950 0.000001 -0.000001 -18.979498 754.238447 -2.322633 -701.934989 -2.092395 -0.058103 -2.581203 1316.241602 -33.458238 -44.900646 0.000006 0.000006 -18.665010 -1104.040520 70.814814 -989.011829 0.000006 0.000001 -18.566599 724.820658 -5.087630 -14.664889
68.317398 -33.070087 34.227398 3089.964904 7.450077 -0.220945 -0.153503 1.163108 7.852407 1.958317 22.910802 -4.672507 0.000001 0.000011 3.343298 0.790488 -9.371188 0.058665 -0.000004 0.000004 7.785506 -14.899470 44.608987 0.226671 -0.000002 0.000004 2.173914 -4.869289 6.054754 -6.701278 2.676296 -1.652397 4.938299 8.134039 2.675469 -15.830329 4.299004 -0.000004 -0.000002 -429.422217 -45.728451 239.879030 -0.000001 -0.000005 -10.245104 -73.747438 677.636072 267.374804 0.000010 0.000009 -12.703299 1161.548199 -176.326087 556.798934 -2.534596 -1.686397 5.195001 -5.006150 6.178405 14.647163 -4.144106 -0.000003 0.000006 317.194887 147.251761 -210.774256 -0.000002 -0.000000 -10.116503 -445.736533 -192.845637 -321.252975 0.000004 0.000001 -12.937813 -1031.644558 -50.395936 -13.213361 2.175589 0.064499 -2.662895 -981.492064 -29.686454 69.911426 -0.000007 -0.000006 -18.585789 369.413705 -190.980927 -104.244150 -0.000003 -0.000006 -18.979504 754.516791 -2.309685 -701.686862 -2.092397 -0.058104 -2.581196 1317.936801 -34.309905 -43.383535 0.000004 -0.000002 -18.665018 -1103.427442 70.848104 -991.181971 0.000010 -0.000011 -18.566601 724.801261 -4.730256 -14.564239
